<svg xmlns="http://www.w3.org/2000/svg" xmlns:xlink="http://www.w3.org/1999/xlink" version="1.1" x="0px" y="0px" viewBox="0 0 100 125" style="enable-background:new 0 0 100 100;" xml:space="preserve"><g><path d="M87.72,42h-3.18c-0.57,0-1.08-0.4-1.23-0.97c-0.77-2.88-1.92-5.65-3.41-8.23c-0.3-0.52-0.23-1.15,0.18-1.57l2.24-2.24   c2.06-2.06,2.06-5.41,0-7.47l-3.85-3.85c-2.06-2.06-5.41-2.06-7.47,0l-2.24,2.24c-0.41,0.41-1.04,0.48-1.57,0.18   c-2.58-1.49-5.35-2.64-8.23-3.41C58.4,16.53,58,16.03,58,15.45v-3.18C58,9.37,55.63,7,52.72,7h-5.44C44.37,7,42,9.37,42,12.28v3.18   c0,0.57-0.4,1.08-0.97,1.23c-2.88,0.77-5.65,1.92-8.23,3.41c-0.52,0.3-1.15,0.23-1.57-0.18l-2.24-2.24c-2.06-2.06-5.41-2.06-7.47,0   l-3.85,3.85c-2.06,2.06-2.06,5.41,0,7.47l2.24,2.24c0.41,0.41,0.48,1.04,0.18,1.57c-1.49,2.58-2.64,5.35-3.41,8.23   C16.53,41.6,16.03,42,15.45,42h-3.18C9.37,42,7,44.37,7,47.28v5.44C7,55.63,9.37,58,12.28,58h3.18c0.57,0,1.08,0.4,1.23,0.97   c0.77,2.88,1.92,5.65,3.41,8.23c0.3,0.52,0.23,1.15-0.18,1.57l-2.24,2.24c-2.06,2.06-2.06,5.41,0,7.47l3.85,3.85   c2.06,2.06,5.41,2.06,7.47,0l2.24-2.24c0.41-0.41,1.04-0.49,1.57-0.18c2.58,1.49,5.35,2.64,8.23,3.41C41.6,83.47,42,83.97,42,84.55   v3.18c0,2.91,2.37,5.28,5.28,5.28h5.44c2.91,0,5.28-2.37,5.28-5.28v-3.18c0-0.57,0.4-1.08,0.97-1.23c2.88-0.77,5.65-1.92,8.23-3.41   c0.53-0.3,1.15-0.23,1.57,0.18l2.24,2.24c2.06,2.06,5.41,2.06,7.47,0l3.85-3.85c2.06-2.06,2.06-5.41,0-7.47l-2.24-2.24   c-0.41-0.41-0.48-1.04-0.18-1.57c1.49-2.58,2.64-5.35,3.41-8.23C83.47,58.4,83.97,58,84.55,58h3.18c2.91,0,5.28-2.37,5.28-5.28   v-5.44C93,44.37,90.63,42,87.72,42z M89,52.72c0,0.71-0.57,1.28-1.28,1.28h-3.18c-2.38,0-4.47,1.62-5.1,3.94   c-0.68,2.54-1.7,4.99-3.01,7.27c-1.2,2.08-0.86,4.71,0.82,6.39l2.24,2.24c0.5,0.5,0.5,1.31,0,1.81l-3.85,3.85   c-0.5,0.5-1.31,0.5-1.81,0l-2.24-2.24c-1.68-1.68-4.31-2.02-6.39-0.82c-2.28,1.31-4.73,2.33-7.27,3.01   c-2.32,0.62-3.94,2.72-3.94,5.1v3.18c0,0.71-0.57,1.28-1.28,1.28h-5.44C46.57,89,46,88.43,46,87.72v-3.18   c0-2.38-1.62-4.47-3.94-5.1c-2.54-0.68-4.99-1.7-7.27-3.01c-0.83-0.48-1.75-0.71-2.67-0.71c-1.37,0-2.72,0.52-3.72,1.53l-2.24,2.24   c-0.5,0.5-1.31,0.5-1.81,0l-3.85-3.85c-0.5-0.5-0.5-1.31,0-1.81l2.24-2.24c1.68-1.68,2.02-4.31,0.82-6.39   c-1.31-2.28-2.33-4.73-3.01-7.27c-0.62-2.32-2.72-3.94-5.1-3.94h-3.18C11.57,54,11,53.43,11,52.72v-5.44   c0-0.71,0.57-1.28,1.28-1.28h3.18c2.38,0,4.47-1.62,5.1-3.94c0.68-2.54,1.7-4.99,3.01-7.27c1.2-2.08,0.86-4.71-0.82-6.39   l-2.24-2.24c-0.5-0.5-0.5-1.31,0-1.81l3.85-3.85c0.5-0.5,1.31-0.5,1.81,0l2.24,2.24c1.68,1.68,4.31,2.02,6.39,0.82   c2.28-1.31,4.73-2.33,7.27-3.01c2.32-0.62,3.94-2.72,3.94-5.1v-3.18c0-0.71,0.57-1.28,1.28-1.28h5.44c0.71,0,1.28,0.57,1.28,1.28   v3.18c0,2.38,1.62,4.47,3.94,5.1c2.54,0.68,4.99,1.7,7.27,3.01c2.08,1.2,4.71,0.86,6.39-0.82l2.24-2.24c0.5-0.5,1.31-0.5,1.81,0   l3.85,3.85c0.5,0.5,0.5,1.31,0,1.81l-2.24,2.24c-1.68,1.68-2.02,4.31-0.82,6.39c1.31,2.28,2.33,4.73,3.01,7.27   c0.62,2.32,2.72,3.94,5.1,3.94h3.18c0.71,0,1.28,0.57,1.28,1.28V52.72z"/><path d="M50,33.5c-9.1,0-16.5,7.4-16.5,16.5S40.9,66.5,50,66.5S66.5,59.1,66.5,50S59.1,33.5,50,33.5z M50,62.5   c-6.89,0-12.5-5.61-12.5-12.5S43.11,37.5,50,37.5S62.5,43.11,62.5,50S56.89,62.5,50,62.5z"/></g><text x="0" y="115" fill="#000000" font-size="5px" font-weight="bold" font-family="'Helvetica Neue', Helvetica, Arial-Unicode, Arial, Sans-serif">Created by Besticons</text><text x="0" y="120" fill="#000000" font-size="5px" font-weight="bold" font-family="'Helvetica Neue', Helvetica, Arial-Unicode, Arial, Sans-serif">from the Noun Project</text></svg>