<?xml version="1.0" standalone="no"?>
<!DOCTYPE svg PUBLIC "-//W3C//DTD SVG 20010904//EN"
 "http://www.w3.org/TR/2001/REC-SVG-20010904/DTD/svg10.dtd">
<svg version="1.0" xmlns="http://www.w3.org/2000/svg"
 width="511.458596pt" height="511.667927pt" viewBox="0 0 511.458596 511.667927"
 preserveAspectRatio="xMidYMid meet">
<metadata>
Created by potrace 1.12, written by Peter Selinger 2001-2015
</metadata>
<g transform="translate(-0.559717,511.826413) scale(0.100000,-0.100000)"
fill="#000000" stroke="none">
<path d="M2370 5113 c-371 -35 -653 -114 -961 -269 -406 -203 -782 -548 -1029
-944 -179 -286 -309 -655 -362 -1025 -17 -118 -17 -512 0 -630 42 -295 120
-553 242 -800 129 -263 265 -457 467 -666 210 -216 428 -375 698 -509 196 -97
315 -141 510 -190 196 -49 343 -70 545 -77 692 -23 1357 235 1859 722 215 209
369 419 506 690 364 718 367 1555 9 2274 -124 250 -263 447 -458 648 -216 224
-428 378 -711 518 -296 146 -572 225 -900 255 -102 9 -333 11 -415 3z m401
-443 c1079 -109 1909 -1026 1909 -2110 0 -712 -360 -1377 -960 -1773 -824
-543 -1920 -439 -2634 252 -975 944 -823 2542 314 3294 397 262 895 384 1371
337z"/>
<path d="M1635 3596 c-40 -17 -95 -72 -111 -113 -19 -45 -18 -137 3 -181 10
-22 156 -178 367 -389 l350 -353 -350 -352 c-211 -212 -357 -368 -367 -390
-21 -44 -22 -136 -3 -181 17 -42 71 -96 115 -114 45 -19 129 -18 177 2 27 11
146 123 391 368 l353 351 353 -350 c222 -221 366 -357 390 -368 46 -21 132
-23 178 -3 44 18 98 72 115 114 19 45 18 137 -3 181 -10 22 -156 178 -367 390
l-350 352 350 353 c224 225 357 366 368 391 27 58 19 161 -17 212 -43 63 -89
88 -167 92 -50 3 -78 -1 -106 -14 -25 -11 -166 -144 -391 -368 l-353 -350
-353 352 c-233 231 -366 357 -390 367 -44 18 -141 19 -182 1z"/>
</g>
</svg>
