<svg xmlns="http://www.w3.org/2000/svg" xmlns:xlink="http://www.w3.org/1999/xlink" version="1.1" x="0px" y="0px" viewBox="0 0 100 125" style="enable-background:new 0 0 100 100;" xml:space="preserve"><path d="M17.79,86.683l14.647,3.293C32.51,89.993,32.584,90,32.657,90c0.458,0,0.87-0.315,0.975-0.781  c0.121-0.539-0.217-1.074-0.756-1.195l-6.529-1.468l5.114-22.744c5.264-0.07,11.359-9.49,14.26-22.396  c0.885-3.936,2.702-13.766,2.871-17.74c0.021-0.483-0.308-0.912-0.78-1.018l-15.463-3.477c-0.472-0.107-0.952,0.141-1.141,0.586  c-1.546,3.663-4.114,13.324-4.999,17.262c-2.902,12.905-1.429,24.032,3.299,26.349l-5.113,22.74l-6.166-1.387  c-0.535-0.12-1.073,0.217-1.195,0.756C16.912,86.026,17.25,86.562,17.79,86.683z M32.743,21.319l13.798,3.103  c-0.257,3.203-1.23,8.879-2.044,13.044c-0.831-0.833-1.9-1.599-3.607-1.983c-2.491-0.56-4.116,0.192-5.547,0.857  c-1.309,0.607-2.441,1.132-4.269,0.72c-1.185-0.267-1.928-0.77-2.506-1.321C29.574,31.609,31.432,24.78,32.743,21.319z M28.07,37.91  c0.657,0.456,1.476,0.856,2.566,1.102c2.494,0.562,4.117-0.192,5.549-0.857c1.308-0.606,2.438-1.131,4.267-0.72  c1.832,0.412,2.628,1.369,3.549,2.477c-0.082,0.386-0.16,0.751-0.231,1.066c-2.987,13.283-9.184,21.613-12.874,20.786  C27.246,60.943,25.227,50.974,28.07,37.91z"/><path d="M68.54,63.812l5.114,22.744l-6.529,1.468c-0.539,0.121-0.877,0.656-0.756,1.195C66.473,89.685,66.886,90,67.343,90  c0.073,0,0.146-0.008,0.22-0.024l14.647-3.293c0.539-0.121,0.877-0.656,0.756-1.195c-0.122-0.54-0.659-0.879-1.195-0.756  l-6.166,1.387l-5.113-22.74c4.728-2.316,6.201-13.443,3.299-26.349c-0.885-3.938-3.453-13.599-4.999-17.262  c-0.188-0.446-0.67-0.692-1.141-0.586l-15.463,3.477c-0.472,0.106-0.8,0.535-0.78,1.018c0.169,3.975,1.986,13.804,2.871,17.74  C57.182,54.322,63.276,63.742,68.54,63.812z M69.104,61.764c-3.685,0.829-9.886-7.501-12.874-20.786  c-0.071-0.315-0.15-0.681-0.231-1.066c0.921-1.108,1.717-2.065,3.549-2.477c1.831-0.412,2.959,0.113,4.267,0.72  c1.433,0.665,3.055,1.419,5.55,0.857c1.09-0.245,1.909-0.646,2.565-1.102C74.773,50.974,72.754,60.943,69.104,61.764z   M67.257,21.319c1.311,3.461,3.168,10.29,4.175,14.42c-0.578,0.552-1.321,1.055-2.506,1.321c-1.829,0.412-2.96-0.113-4.269-0.72  c-1.432-0.665-3.057-1.419-5.547-0.857c-1.707,0.384-2.775,1.15-3.607,1.983c-0.814-4.166-1.786-9.842-2.044-13.044L67.257,21.319z"/><path d="M50.01,17.364c0.006,0,0.012,0,0.018,0c0.552-0.01,0.992-0.465,0.983-1.017l-0.093-5.364  c-0.01-0.552-0.485-0.991-1.017-0.983c-0.552,0.01-0.992,0.465-0.983,1.017l0.093,5.364C49.021,16.927,49.466,17.364,50.01,17.364z"/><path d="M43.155,17.414c0.188,0.312,0.519,0.485,0.858,0.485c0.175,0,0.353-0.046,0.514-0.143c0.473-0.285,0.626-0.899,0.342-1.373  l-2.762-4.599c-0.285-0.474-0.898-0.625-1.373-0.342c-0.473,0.285-0.626,0.899-0.342,1.373L43.155,17.414z"/><path d="M55.378,17.722c0.165,0.103,0.348,0.152,0.529,0.152c0.333,0,0.66-0.167,0.849-0.47l2.841-4.55  c0.292-0.469,0.15-1.085-0.318-1.378c-0.47-0.293-1.085-0.15-1.378,0.318l-2.841,4.55C54.768,16.813,54.91,17.43,55.378,17.722z"/><text x="0" y="115" fill="#000000" font-size="5px" font-weight="bold" font-family="'Helvetica Neue', Helvetica, Arial-Unicode, Arial, Sans-serif">Created by Made by Made</text><text x="0" y="120" fill="#000000" font-size="5px" font-weight="bold" font-family="'Helvetica Neue', Helvetica, Arial-Unicode, Arial, Sans-serif">from the Noun Project</text></svg>