<svg xmlns="http://www.w3.org/2000/svg" viewBox="0 0 64 80" x="0px" y="0px"><title>cheers-drinks-alcohol-glasses-food and restaurant-birthday and party</title><g><path d="M5.916,42.016l2.984.308-.309,2.985A3,3,0,0,0,11.267,48.6L23.2,49.836A3,3,0,0,0,26.5,47.161l2.367-22.878a2.006,2.006,0,0,0,2.2-1.783l.1-1a5,5,0,0,0-4.46-5.487L14.765,14.782a5,5,0,0,0-5.489,4.459l-.1.994-.994-.1a5.016,5.016,0,0,0-5.489,4.459L1.456,36.528A5.008,5.008,0,0,0,5.916,42.016Zm3.6-5.66L7.528,36.15,8.557,26.2l1.989.2Zm1.75-16.91a3,3,0,0,1,2.977-2.691,3.054,3.054,0,0,1,.316.016L26.5,18.006A3,3,0,0,1,29.172,21.3l-.105,1-17.9-1.853Zm7.648,3.807L18.4,28.228a.989.989,0,0,1-.363.672,1.018,1.018,0,0,1-.734.219,1,1,0,0,1-.891-1.1l.514-4.973Zm-5.967-.617,1.989.206-.515,4.974a3,3,0,0,0,5.969.617l.513-4.974,5.969.618L24.506,46.955a.994.994,0,0,1-.363.673,1.008,1.008,0,0,1-.735.219L11.472,46.612a1,1,0,0,1-.891-1.1Zm-9.5,14.1L4.682,24.8a2.989,2.989,0,0,1,3.293-2.675l2.983.308-.206,1.99-2.984-.309A1,1,0,0,0,6.67,25L5.436,36.939a1,1,0,0,0,.892,1.1l2.983.308-.206,1.99-2.984-.309A3,3,0,0,1,3.446,36.733Z"/><path d="M13.79,44.833a1,1,0,0,0,0-2h-.01a1,1,0,0,0,.01,2Z"/><path d="M14.613,36.876a1,1,0,0,0,0-2H14.6a1,1,0,1,0,.009,2Z"/><path d="M22.57,37.7a1,1,0,0,0,0-2h-.009a1,1,0,1,0,.009,2Z"/><path d="M23.188,31.731a1,1,0,0,0,0-2h-.009a1,1,0,0,0,.009,2Z"/><path d="M21.748,43.657h-.01a1.005,1.005,0,1,0,.01,0Z"/><path d="M20.17,41.472a1,1,0,0,0,0-2h-.01a1,1,0,0,0,.01,2Z"/><path d="M15.187,40.061a1,1,0,1,0,1-1h-.009A1,1,0,0,0,15.187,40.061Z"/><path d="M61.309,24.591a5.014,5.014,0,0,0-5.489-4.459l-.994.1-.1-1a5,5,0,0,0-5.489-4.458L37.3,16.017a5,5,0,0,0-4.459,5.488l.1.994a2,2,0,0,0,2.2,1.784L37.5,47.16A3,3,0,0,0,40.8,49.836L52.733,48.6a3,3,0,0,0,2.676-3.293L55.1,42.324l2.984-.308a5.009,5.009,0,0,0,4.46-5.489Zm-26.376-2.3-.1-.994A3,3,0,0,1,37.5,18.006L49.44,16.771a3,3,0,0,1,3.293,2.675l.1.995Zm12.655,5.729a1,1,0,0,1-.891,1.1,1.017,1.017,0,0,1-.734-.219.989.989,0,0,1-.363-.673l-.515-4.974,1.989-.205Zm4.94,18.591L40.592,47.847a1.006,1.006,0,0,1-.735-.219.994.994,0,0,1-.363-.673L37.127,24.077l5.969-.618.513,4.974a3,3,0,0,0,2.979,2.692,3.018,3.018,0,0,0,.314-.017,3,3,0,0,0,2.676-3.293l-.515-4.973,1.989-.206,2.367,22.878A1,1,0,0,1,52.528,46.612Zm.926-20.2,1.989-.2,1.029,9.946-1.989.206Zm4.425,13.617-2.984.309-.206-1.99,2.983-.308a1,1,0,0,0,.892-1.1L57.33,25a1,1,0,0,0-.364-.673,1.011,1.011,0,0,0-.734-.219l-2.984.309-.206-1.99,2.983-.308A3,3,0,0,1,59.318,24.8l1.236,11.936A3,3,0,0,1,57.879,40.026Z"/><path d="M50.249,42.833h-.01a1.005,1.005,0,1,0,.01,0Z"/><path d="M49.426,36.876a1,1,0,0,0,0-2h-.01a1,1,0,0,0,.01,2Z"/><path d="M42.469,36.7a1,1,0,0,0-1-1h-.01a1,1,0,1,0,1.01,1Z"/><path d="M41.851,30.731a1,1,0,0,0-1-1h-.01a1,1,0,1,0,1.01,1Z"/><path d="M42.291,43.657h-.01a1.005,1.005,0,1,0,.01,0Z"/><path d="M43.869,39.472h-.01a1.005,1.005,0,1,0,.01,0Z"/><path d="M47.848,39.061h-.01a1.005,1.005,0,1,0,.01,0Z"/><path d="M32,13a1,1,0,0,0,1-1V10a1,1,0,0,0-2,0v2A1,1,0,0,0,32,13Z"/><path d="M35.553,12.9a1,1,0,0,0,1.342-.448l1-2a1,1,0,1,0-1.79-.894l-1,2A1,1,0,0,0,35.553,12.9Z"/><path d="M27.105,12.447a1,1,0,1,0,1.79-.894l-1-2a1,1,0,0,0-1.79.894Z"/></g><text x="0" y="79" fill="#000000" font-size="5px" font-weight="bold" font-family="'Helvetica Neue', Helvetica, Arial-Unicode, Arial, Sans-serif">Created by Smalllike</text><text x="0" y="84" fill="#000000" font-size="5px" font-weight="bold" font-family="'Helvetica Neue', Helvetica, Arial-Unicode, Arial, Sans-serif">from the Noun Project</text></svg>