<?xml version="1.0"?>
<svg xmlns="http://www.w3.org/2000/svg" height="512px" viewBox="0 0 512.00138 512" width="512px" class=""><g><link xmlns="" type="text/css" id="dark-mode" rel="stylesheet" href="" class="active-path" style="fill:null"/><style xmlns="" type="text/css" id="dark-mode-custom-style" class="active-path" style="fill:null"/><path d="m508.007812 63.457031-59.464843-59.460937c-2.574219-2.578125-6-3.996094-9.644531-3.996094-3.640626 0-7.066407 1.417969-9.644532 3.996094l-25.691406 25.691406c-4.550781 4.550781-5.195312 11.539062-1.953125 16.796875l-12.914063 12.910156c-12.5625 12.5625-42.148437 22.582031-70.761718 32.269531-26.097656 8.839844-50.75 17.1875-65.816406 28.121094-27.050782 19.628906-56.871094 43.644532-91.871094 85.902344-.019532.023438-.042969.046875-.0625.074219-.988282 1.191406-1.976563 2.394531-2.972656 3.617187-10.335938 12.679688-18.988282 24.261719-26.621094 34.476563-17.808594 23.832031-31.871094 42.65625-56.867188 62.734375-14.304687 11.492187-32.828125 24.5-55.050781 38.671875-10.375 6.617187-17.089844 17.425781-18.429687 29.660156-1.335938 12.25 2.890624 24.269531 11.605468 32.980469l92.25 92.25c7.652344 7.652344 17.855469 11.847656 28.527344 11.847656 1.476562 0 2.964844-.082031 4.453125-.242188 12.234375-1.339843 23.042969-8.054687 29.660156-18.429687 14.164063-22.21875 27.175781-40.738281 38.671875-55.046875 1.105469-1.375 2.207032-2.71875 3.304688-4.03125 2.660156-3.175781 2.238281-7.90625-.9375-10.566406-3.171875-2.65625-7.90625-2.238282-10.5625.9375-1.164063 1.390625-2.328125 2.808594-3.5 4.265625-11.832032 14.730469-25.167969 33.699219-39.625 56.378906-4.15625 6.519531-10.949219 10.738281-18.640625 11.582031-7.703125.84375-15.265625-1.820312-20.746094-7.300781l-92.25-92.246094c-5.480469-5.484375-8.140625-13.042969-7.296875-20.746093.839844-7.691407 5.0625-14.484376 11.578125-18.640626 22.6875-14.464843 41.652344-27.796874 56.378906-39.628906 26.480469-21.269531 41.78125-41.742187 59.492188-65.449218 7.316406-9.792969 14.886719-19.910157 23.992187-31.207032l39.777344 39.78125c1.460938 1.460938 3.382812 2.195313 5.300781 2.195313s3.839844-.730469 5.304688-2.195313c2.929687-2.929687 2.929687-7.679687 0-10.609375l-40.785157-40.785156c32.058594-37.753906 59.625-59.871094 84.734376-78.089844 6.726562-4.882812 16.425781-9.445312 27.472656-13.816406l105.488281 105.488281c-4.367187 11.050782-8.929687 20.75-13.8125 27.476563-18.222656 25.109375-40.339844 52.675781-78.09375 84.734375l-65.667969-65.671875c-2.929687-2.929688-7.679687-2.929688-10.609375 0-2.925781 2.929687-2.925781 7.679687 0 10.605469l64.664063 64.664062c-11.292969 9.105469-21.410156 16.675781-31.207032 23.992188-15.671874 11.710937-29.210937 21.824218-42.710937 34.691406-2.996094 2.855468-3.113281 7.601562-.253906 10.601562 1.472656 1.546875 3.449219 2.328125 5.429687 2.328125 1.859375 0 3.722656-.6875 5.171875-2.070312 12.851563-12.246094 26.054688-22.109375 41.339844-33.535157 10.21875-7.636718 21.804687-16.289062 34.484375-26.621093 1.222656-.996094 2.421875-1.988281 3.613281-2.976563.027344-.019531.050781-.039062.078125-.058594 42.253906-35 66.269532-64.820312 85.902344-91.875 10.933594-15.0625 19.277344-39.714843 28.117188-65.816406 9.691406-28.613281 19.707031-58.199218 32.273437-70.761718l12.90625-12.90625c2.132813 1.316406 4.582031 2.035156 7.152344 2.035156 3.644531 0 7.070312-1.417969 9.644531-3.992188l25.695312-25.695312c2.574219-2.574219 3.992188-6 3.992188-9.644532 0-3.644531-1.417969-7.066406-3.992188-9.644531zm-66.007812 49.238281c-15.039062 15.042969-25.628906 46.316407-35.871094 76.558594-2.136718 6.3125-4.296875 12.679688-6.488281 18.878906l-95.773437-95.773437c6.199218-2.191406 12.566406-4.351563 18.878906-6.488281 30.242187-10.242188 61.519531-20.832032 76.558594-35.871094l12.640624-12.640625 42.695313 42.695313zm30.667969-15.824218-2.113281-2.113282s0-.003906-.003907-.003906c0-.003906-.003906-.003906-.003906-.003906l-53.292969-53.296875c-.003906 0-.003906 0-.007812-.003906 0 0 0-.003907-.003906-.003907l-2.113282-2.113281 23.769532-23.765625 57.539062 57.535156zm0 0" data-original="#000000" class="active-path" fill="#18453B"/><path d="m292.277344 199.601562c-1.976563-1.976562-4.605469-3.066406-7.402344-3.066406s-5.425781 1.089844-7.40625 3.070313l-7.019531 7.015625c-4.664063 4.667968-7.234375 10.871094-7.234375 17.464844 0 6.597656 2.570312 12.800781 7.234375 17.464843 4.664062 4.664063 10.867187 7.234375 17.464843 7.234375 6.597657 0 12.800782-2.570312 17.464844-7.234375l7.019532-7.019531c4.082031-4.082031 4.082031-10.726562 0-14.808594zm2.492187 31.34375c-1.832031 1.832032-4.265625 2.839844-6.855469 2.839844-2.589843 0-5.027343-1.007812-6.859374-2.839844-1.832032-1.832031-2.839844-4.265624-2.839844-6.859374 0-2.589844 1.007812-5.023438 2.839844-6.855469l3.820312-3.820313 13.714844 13.71875zm0 0" data-original="#000000" class="active-path" fill="#18453B"/><path d="m341.488281 268.082031c1.921875 0 3.839844-.730469 5.304688-2.199219l8.027343-8.027343c2.929688-2.929688 2.929688-7.679688 0-10.605469-2.925781-2.929688-7.675781-2.929688-10.605468 0l-8.027344 8.027344c-2.929688 2.929687-2.929688 7.679687 0 10.605468 1.464844 1.464844 3.382812 2.199219 5.300781 2.199219zm0 0" data-original="#000000" class="active-path" fill="#18453B"/><path d="m254.144531 157.179688-8.027343 8.027343c-2.929688 2.929688-2.929688 7.679688 0 10.605469 1.464843 1.464844 3.382812 2.199219 5.304687 2.199219 1.917969 0 3.835937-.734375 5.300781-2.199219l8.03125-8.027344c2.925782-2.929687 2.925782-7.679687 0-10.605468-2.929687-2.929688-7.679687-2.929688-10.609375 0zm0 0" data-original="#000000" class="active-path" fill="#18453B"/><path d="m316.992188 266.441406c-2.929688 2.929688-2.929688 7.679688 0 10.605469l8.03125 8.03125c1.460937 1.460937 3.382812 2.195313 5.300781 2.195313s3.839843-.730469 5.304687-2.195313c2.929688-2.929687 2.929688-7.679687 0-10.609375l-8.03125-8.027344c-2.925781-2.929687-7.675781-2.929687-10.605468 0zm0 0" data-original="#000000" class="active-path" fill="#18453B"/><path d="m226.921875 176.371094c-2.925781 2.929687-2.925781 7.679687 0 10.605468l8.03125 8.03125c1.464844 1.464844 3.382813 2.195313 5.300781 2.195313 1.921875 0 3.839844-.730469 5.304688-2.195313 2.929687-2.929687 2.929687-7.679687 0-10.605468l-8.027344-8.03125c-2.929688-2.929688-7.679688-2.929688-10.609375 0zm0 0" data-original="#000000" class="active-path" fill="#18453B"/></g> </svg>
